Patient4_TMGait_0pt4_03_right_10_EMG.mot
version=1
nRows=26
nColumns=33
inDegrees=no
endheader
time	1LAddLong	2LGlutMax	3LGlutMed	4LIliopsoas	5LSemiMemb	6LBicFemLong	7LRecFem	8LVastMed	9LVastLat	10LGasMed	11LTibAnt	12lTibPost	13LPeroneusLong	14LSol	15LExtDigLong	16LFlexDigLong	17RAddLong	18RGlutMax	19RGlutMed	20RIliopsoas	21RSemiMemb	22RBicFemLong	23RRecFem	24RVastMed	25RVastLat	26RGasMed	27RTibAnt	28RTibPost	29RPeroneusLong	30RSol	31RExtDigLong	32RFlexDigLong
13.01	0.026093	0.002594	-0.029755	-0.002441	0.07309	-0.32913	-0.024261	-0.003204	-0.017853	0.025635	0.004425	0.003052	-0.026093	-0.012817	-0.018616	-0.00946	0.027313	-0.041809	0.029297	0.040283	0.056458	0.060272	-0.13184	-0.035858	0.039978	-0.032196	-0.020142	-0.012207	0.26749	-0.27695	0.001221	-0.013885
13.011	0.020599	-0.035095	-0.054321	-0.015717	0.10773	-0.16876	-0.024872	-0.005188	-0.016785	0.011749	-0.005493	0.001984	-0.043793	0.003662	-0.002289	-0.001831	0.011597	-0.020905	0.11078	-0.052643	0.069122	0.14389	-0.16449	0.042572	0.040741	-0.033417	-0.023193	-0.010834	-0.098267	-0.37567	-0.001831	-0.001831
13.012	0.005798	-0.050507	-0.074005	-0.020447	0.12894	-0.077972	-0.015717	-0.006561	-0.042725	0.013275	-0.003052	-0.000458	-0.053711	0.033569	0.004883	-0.000153	0.007019	-0.023193	0.034485	-0.12421	0.083771	0.12268	-0.16205	-0.001068	0.047302	-0.006561	-0.016174	-0.012665	-0.14999	-0.5304	0.000153	-0.010071
13.013	0.009003	-0.054474	-0.07782	0.015717	0.054321	0.071106	0.002441	-0.00473	-0.026398	0.011597	-0.000763	0.005188	-0.047607	0.030212	0.000305	0.005646	-0.00946	0.034637	0.070953	-0.033112	0.078888	0.062866	-0.18906	0.035858	0.043945	0.007019	-0.012207	-0.002289	0.1474	-0.45181	-0.001678	-0.005951
13.014	0.012665	-0.014801	-0.006714	0.018921	-0.027161	0.14191	0.048828	-0.013885	-0.035095	0.005646	-0.01709	0.006561	-0.00061	0.04776	0.017395	-0.000305	-0.022583	-0.00824	-0.003357	0.032501	0.059357	0.033722	-0.17364	0.009003	0.050354	0.00351	-0.000458	-0.002594	0.19577	0.17975	-0.001526	-0.004883
13.015	0.0177	0.052185	0.027618	0.00473	0.012207	0.19287	-0.038605	-0.014954	0.006866	0.010223	-0.007782	0.005188	-0.034332	0.021515	0.012054	-0.004578	-0.035248	0.016785	-0.12772	0.054321	0.053864	0.031586	-0.21515	0.061951	0.028992	0.002594	-0.001526	-0.009766	0.038757	0.53024	0.000153	-0.005646
13.016	0.00061	0.066681	-0.028839	-0.004578	0.048218	0.18707	-0.066376	0.00061	0.079041	0.005798	-0.005493	0.003052	-0.081787	0.029602	0.000458	0.00412	-0.043488	-0.034027	-0.087738	0.032654	0.063629	0.03418	-0.20569	0.043793	0.050964	0.002747	-0.000305	-0.013428	-0.022736	0.40588	-0.006561	-0.011749
13.017	-0.014496	0.063019	-0.066833	-0.007019	0.002899	0.09964	-0.04776	0.021515	0.15564	0	0	0.005188	-0.085754	0.010681	0.008087	-0.00351	-0.047607	-0.078583	-0.015259	0.035553	0.084839	0.046234	-0.25223	0.037994	0.055237	0.00351	-0.046692	-0.008392	0.07309	0.16693	-0.002747	-0.018311
13.018	-0.033875	0.09201	-0.06958	-0.015869	-0.059662	0.15518	-0.024261	0.040894	0.06073	-0.002289	-0.000763	-0.001221	-0.039825	0.039215	0.008545	0.003662	-0.034027	-0.081024	0.004272	0.10635	0.0914	0.058289	-0.19226	0.027161	0.063782	0.003967	-0.046539	-0.011139	0.14664	0.066071	-0.002441	-0.014496
13.019	-0.029907	0.11734	-0.001068	-0.012665	-0.046997	0.016327	-0.05249	0.037537	0.015259	0.000916	-0.002594	-0.000458	-0.012817	0.039673	0.00885	0.002594	-0.014038	-0.02594	0.020599	0.10361	0.11185	0.038757	-0.20584	0.04715	0.04425	-0.001678	-0.019226	-0.016174	-0.12253	0.28519	-0.006104	-0.019379
13.02	-0.016174	0.10208	0.050049	-0.029297	-0.032501	-0.052643	-0.055237	0.026245	0.079498	0.014038	-0.003204	0.002289	0.019226	0.047455	0.005951	0.003204	-0.004883	-0.08316	0.052643	0.040894	0.10147	-0.002289	-0.20081	0.059204	0.050354	0.007629	-0.024109	-0.010223	0.008392	0.27679	-0.002899	-0.020752
13.021	0.010376	0.16037	0.019684	-0.004883	-0.052032	-0.05661	-0.10239	0.016174	0.14145	-0.00061	-0.008545	0.006866	0.025787	0.064087	0.014648	-0.00824	0.024567	-0.11154	0.015717	0.031433	0.072937	-0.024414	-0.22797	0.007324	0.001068	-0.001221	0.000916	-0.007782	0.019379	0.224	-0.003052	-0.032806
13.022	0.026245	0.19775	0.046387	-0.001068	-0.031433	-0.18784	-0.12512	0.006714	0.14648	-0.006561	-0.001068	0.005341	-0.060883	0.07431	0.017242	-0.006866	0.028229	-0.066986	0.00824	0.028992	0.097656	-0.011749	-0.21515	-0.027008	0.029907	-0.019226	0.026245	-0.019836	-0.041199	-0.006409	0.002136	-0.03006
13.023	0.018158	0.23636	0.003204	0.016937	0.062103	-0.23529	-0.112	0.005951	0.10681	0.007935	0.002289	0.010986	-0.055847	0.068054	-0.006409	-0.001068	0.008698	-0.016937	0.043335	0.007629	0.11215	-0.02655	-0.25101	0.057068	0.020752	-0.032806	0.025635	-0.017548	0.14404	-0.028534	-0.001221	-0.024109
13.024	0.016785	0.18936	-0.004425	0.018158	0.069885	0.032959	-0.066986	-0.000153	0.032196	0.016022	0.005798	0.010223	-0.12589	0.018158	-0.011139	-0.015411	0.002441	-0.041199	0.10147	-0.069427	0.092468	-0.03418	-0.21484	0.052948	0.006866	-0.039063	0.012665	-0.013885	0.23727	0.079193	-0.00061	-0.019226
13.025	-0.024109	0.1384	0.050812	0.014038	-0.031433	0.16861	-0.042114	0.02533	-0.1091	0.022583	0.010681	0.011444	-0.26077	0.06012	0.004578	-0.014191	-0.046387	-0.019684	0.10803	-0.080719	0.080109	-0.025787	-0.22659	-0.023193	-0.012054	-0.038605	0.027313	-0.002441	-0.039673	-0.019073	-0.003357	-0.024872
13.026	-0.027161	0.12802	0.048676	0.009003	-0.10681	0.096741	-0.08728	0.050812	-0.1741	0.006104	-0.020905	-0.007935	0.091095	0.07843	0.018005	-0.005188	-0.070801	-0.013123	0.015717	-0.084229	0.062408	-0.008392	-0.22583	-0.034637	-0.014496	0.022278	0.018005	0.000458	-0.14511	-0.077515	0.002594	-0.031128
13.027	-0.010681	0.071869	0.069275	-0.007629	-0.17075	0.1445	-0.15595	0.052948	-0.066986	-0.007019	-0.026703	0.00412	0.18295	0.083771	0.010986	-0.010681	-0.062714	-0.052795	0.000458	-0.053101	0.048981	-0.014801	-0.19836	-0.054474	-0.020905	0.021515	0.011597	0.001831	-0.51697	-0.007324	-0.006409	-0.039978
13.028	0.017242	0.038605	0.076599	-0.000916	-0.13123	0.12482	-0.18097	0.046387	-0.014191	0.011139	0	0.015564	-0.12558	0.067444	0.010681	-0.012817	-0.050354	-0.074463	0.016479	-0.015717	0.031586	-0.027008	-0.20584	-0.037231	-0.025177	0.03006	-0.004883	-0.001373	-0.63187	0.10117	-0.005493	-0.034943
13.029	0.027466	0.043488	0.026855	-0.000763	0.071411	-0.26047	-0.13855	0.026398	0.014191	0.019073	0.014191	0.011749	-0.12009	0.053864	-0.006256	-0.011749	-0.0177	-0.049896	0.0354	0.025635	0.037689	-0.014038	-0.18341	-0.072937	-0.033112	0.027771	0.005798	-0.010681	-0.23071	0.21713	-0.003204	-0.037689
13.03	0.020294	0.046692	0.014954	0.003357	0.12161	-0.30228	-0.16495	0.00351	0.035706	-0.01358	0.010986	0.019684	-0.22827	0.059509	0.01236	-0.012817	0.002136	-0.018768	-0.022888	0.014801	0.059509	0.007324	-0.21316	-0.059357	-0.037231	-0.014343	-0.000916	-0.027161	0.17075	0.07431	0.000916	-0.045166
13.031	0.01297	-0.000305	0.01236	-0.002441	0.050354	-0.10956	-0.20523	-0.01297	0.06424	-0.021515	-0.007629	0.031738	-0.01709	0.14252	0.046234	-0.004883	0.037079	-0.000305	-0.008392	0.01236	0.073547	0.059052	-0.2179	-0.047607	-0.007477	-0.048981	-0.024567	-0.076294	0.22888	-0.24017	0.000458	-0.04303
13.032	0.011902	0.010223	-0.007629	-0.00885	-0.002899	-0.040741	-0.13138	-0.011292	0.1181	0.013123	0.000305	0.0383	0.080872	0.066986	-0.027771	0.01358	0.055695	-0.026398	-0.001831	0.030518	0.10788	0.067749	-0.21332	0.011444	-0.012665	-0.029297	-0.002594	-0.11353	0.10803	-0.33188	-0.004425	-0.034943
13.033	0.002747	0.075226	-0.059052	0.011139	0.018921	0.018158	-0.1355	-0.021362	0.28168	0.050659	0.006714	0.050812	0.12604	0.019989	-0.070343	0.015411	0.068817	-0.034637	0.093536	0.039368	0.14572	-0.005951	-0.20126	0.046844	-0.013123	-0.019226	0.014496	-0.040283	0.044861	-0.29663	0.000763	-0.035248
13.034	-0.008545	0.10544	-0.074921	0.005341	0.013275	0.033264	-0.12451	-0.02243	0.36621	0.039368	-0.007172	0.069275	0.21393	0.0177	-0.073242	0.039673	0.1329	-0.006561	0.006714	0.035553	0.12787	-0.078583	-0.21072	0.024567	-0.012207	-0.017548	-0.02594	0.088043	0.18219	-0.35767	-0.00061	-0.037231
13.035	0.000305	0.083618	-0.093231	-0.004272	0.006714	-0.27268	-0.071716	-0.02533	0.31464	0.004578	-0.027161	0.075531	0.32822	-0.017395	-0.045929	0.067139	0.11719	0.017395	0.033722	-0.038147	0.090485	-0.095825	-0.20554	-0.034332	-0.001221	-0.007629	-0.065002	0.10819	0.24902	-0.075531	0	-0.022888
